{
  "accessors": [
    {
      "bufferView": 3,
      "componentType": 5126,
      "count": 2626,
      "max": [
        1.4336538314819336,
        0.8840779066085815,
        0.22892263531684875
      ],
      "min": [
        -1.164254903793335,
        -0.1508222222328186,
        -0.2289225459098816
      ],
      "type": "VEC3"
    },
    {
      "bufferView": 3,
      "byteOffset": 31512,
      "componentType": 5126,
      "count": 2626,
      "max": [
        0.9896544218063354,
        0.9998273253440857,
        0.9999801516532898
      ],
      "min": [
        -0.972114622592926,
        -0.9999821186065674,
        -0.9999881982803345
      ],
      "type": "VEC3"
    },
    {
      "bufferView": 2,
      "componentType": 5126,
      "count": 2626,
      "max": [
        0.9670772552490234,
        0.9603633284568787
      ],
      "min": [
        0.26251843571662903,
        0.024916086345911026
      ],
      "type": "VEC2"
    },
    {
      "bufferView": 2,
      "byteOffset": 21008,
      "componentType": 5126,
      "count": 2626,
      "max": [
        0.9670772552490234,
        0.9603633284568787
      ],
      "min": [
        0.26251843571662903,
        0.024916086345911026
      ],
      "type": "VEC2"
    },
    {
      "bufferView": 2,
      "byteOffset": 42016,
      "componentType": 5126,
      "count": 2626,
      "max": [
        0.9670772552490234,
        0.9603633284568787
      ],
      "min": [
        0.26251843571662903,
        0.024916086345911026
      ],
      "type": "VEC2"
    },
    {
      "bufferView": 2,
      "byteOffset": 63024,
      "componentType": 5126,
      "count": 2626,
      "max": [
        0.9670772552490234,
        0.9603633284568787
      ],
      "min": [
        0.26251843571662903,
        0.024916086345911026
      ],
      "type": "VEC2"
    },
    {
      "bufferView": 1,
      "componentType": 5125,
      "count": 7848,
      "type": "SCALAR"
    },
    {
      "bufferView": 3,
      "byteOffset": 63024,
      "componentType": 5126,
      "count": 758,
      "max": [
        -0.4418032765388489,
        -0.05470979958772659,
        0.03831636905670166
      ],
      "min": [
        -0.538996696472168,
        -0.10086504369974136,
        -0.038316331803798676
      ],
      "type": "VEC3"
    },
    {
      "bufferView": 3,
      "byteOffset": 72120,
      "componentType": 5126,
      "count": 758,
      "max": [
        0.9740877747535706,
        0.9943898320198059,
        0.9999564290046692
      ],
      "min": [
        -0.9886455535888672,
        -0.9992755651473999,
        -0.9999564290046692
      ],
      "type": "VEC3"
    },
    {
      "bufferView": 2,
      "byteOffset": 84032,
      "componentType": 5126,
      "count": 758,
      "max": [
        0.965087890625,
        0.9604820013046265
      ],
      "min": [
        0.016602328047156334,
        0.015841662883758545
      ],
      "type": "VEC2"
    },
    {
      "bufferView": 1,
      "byteOffset": 31392,
      "componentType": 5125,
      "count": 3852,
      "type": "SCALAR"
    },
    {
      "bufferView": 5,
      "componentType": 5126,
      "count": 16,
      "max": [
        1.0,
        0.996346652507782,
        0.2852536141872406,
        0.0,
        0.9985705018043518,
        1.0,
        0.9963465332984924,
        0.0,
        1.0,
        1.1328768323437544e-07,
        1.0000001192092896,
        0.0,
        0.7071384787559509,
        0.38876163959503174,
        1.2573921992498072e-07,
        1.0
      ],
      "min": [
        -0.9612658023834229,
        -0.9985705018043518,
        -0.9893166422843933,
        0.0,
        -0.8642762303352356,
        -0.9612658023834229,
        -4.816378122995957e-07,
        0.0,
        -1.2328459888522048e-06,
        -7.139684612411656e-07,
        -0.14578279852867126,
        0.0,
        -0.41481813788414,
        -0.6042712330818176,
        -1.2392423152923584,
        1.0
      ],
      "type": "MAT4"
    },
    {
      "bufferView": 0,
      "componentType": 5123,
      "count": 2626,
      "type": "VEC4"
    },
    {
      "bufferView": 4,
      "componentType": 5126,
      "count": 2626,
      "max": [
        1.0,
        0.49999845027923584,
        1.4731850755446802e-41,
        4.203895392974451e-45
      ],
      "min": [
        0.0,
        0.0,
        0.0,
        0.0
      ],
      "type": "VEC4"
    },
    {
      "bufferView": 0,
      "byteOffset": 21008,
      "componentType": 5123,
      "count": 758,
      "type": "VEC4"
    },
    {
      "bufferView": 4,
      "byteOffset": 42016,
      "componentType": 5126,
      "count": 758,
      "max": [
        1.0,
        0.1492762565612793,
        0.0,
        0.0
      ],
      "min": [
        0.8507237434387207,
        0.0,
        0.0,
        0.0
      ],
      "type": "VEC4"
    }
  ],
  "asset": {
    "extras": {
      "author": "lolo_ivens (https://sketchfab.com/lolo_ivens)",
      "license": "CC-BY-4.0 (http://creativecommons.org/licenses/by/4.0/)",
      "source": "https://sketchfab.com/3d-models/shark-f01ef981892f4248ba3157194b2db7b8",
      "title": "Shark"
    },
    "generator": "Sketchfab-12.67.0",
    "version": "2.0"
  },
  "bufferViews": [
    {
      "buffer": 0,
      "byteLength": 27072,
      "byteStride": 8,
      "name": "shortBufferViews",
      "target": 34962
    },
    {
      "buffer": 0,
      "byteLength": 46800,
      "byteOffset": 27072,
      "name": "floatBufferViews",
      "target": 34963
    },
    {
      "buffer": 0,
      "byteLength": 90096,
      "byteOffset": 73872,
      "byteStride": 8,
      "name": "floatBufferViews",
      "target": 34962
    },
    {
      "buffer": 0,
      "byteLength": 81216,
      "byteOffset": 163968,
      "byteStride": 12,
      "name": "floatBufferViews",
      "target": 34962
    },
    {
      "buffer": 0,
      "byteLength": 54144,
      "byteOffset": 245184,
      "byteStride": 16,
      "name": "floatBufferViews",
      "target": 34962
    },
    {
      "buffer": 0,
      "byteLength": 1024,
      "byteOffset": 299328,
      "name": "floatBufferViews"
    }
  ],
  "buffers": [
    {
      "byteLength": 300352,
      "uri": "scene.bin"
    }
  ],
  "images": [
    {
      "uri": "textures/Shark_baseColor.jpeg"
    },
    {
      "uri": "textures/Shark_metallicRoughness.png"
    },
    {
      "uri": "textures/Shark_emissive.jpeg"
    }
  ],
  "materials": [
    {
      "doubleSided": true,
      "emissiveFactor": [
        1.0,
        1.0,
        1.0
      ],
      "emissiveTexture": {
        "index": 2,
        "texCoord": 2
      },
      "name": "Shark",
      "pbrMetallicRoughness": {
        "baseColorTexture": {
          "index": 0
        },
        "metallicFactor": 0.0,
        "metallicRoughnessTexture": {
          "index": 1,
          "texCoord": 1
        }
      }
    }
  ],
  "meshes": [
    {
      "name": "Object_0",
      "primitives": [
        {
          "attributes": {
            "JOINTS_0": 12,
            "NORMAL": 1,
            "POSITION": 0,
            "TEXCOORD_0": 2,
            "TEXCOORD_1": 3,
            "TEXCOORD_2": 4,
            "TEXCOORD_3": 5,
            "WEIGHTS_0": 13
          },
          "indices": 6,
          "material": 0,
          "mode": 4
        }
      ]
    },
    {
      "name": "Object_1",
      "primitives": [
        {
          "attributes": {
            "JOINTS_0": 14,
            "NORMAL": 8,
            "POSITION": 7,
            "TEXCOORD_0": 9,
            "TEXCOORD_1": 9,
            "TEXCOORD_2": 9,
            "TEXCOORD_3": 9,
            "WEIGHTS_0": 15
          },
          "indices": 10,
          "material": 0,
          "mode": 4
        }
      ]
    }
  ],
  "nodes": [
    {
      "children": [
        1
      ],
      "matrix": [
        1.0,
        0.0,
        0.0,
        0.0,
        0.0,
        2.220446049250313e-16,
        -1.0,
        0.0,
        0.0,
        1.0,
        2.220446049250313e-16,
        0.0,
        0.0,
        0.0,
        0.0,
        1.0
      ],
      "name": "Sketchfab_model"
    },
    {
      "children": [
        2
      ],
      "name": "root"
    },
    {
      "children": [
        3
      ],
      "matrix": [
        1.0,
        0.0,
        0.0,
        0.0,
        0.0,
        2.220446049250313e-16,
        1.0,
        0.0,
        0.0,
        -1.0,
        2.220446049250313e-16,
        0.0,
        0.0,
        0.0,
        0.0,
        1.0
      ],
      "name": "GLTF_SceneRootNode"
    },
    {
      "children": [
        4
      ],
      "name": "Shark_Armature_17"
    },
    {
      "children": [
        5,
        7,
        9,
        6,
        8
      ],
      "name": "GLTF_created_0"
    },
    {
      "children": [
        10,
        15,
        24
      ],
      "name": "GLTF_created_0_rootJoint"
    },
    {
      "name": "Shark_Body_15"
    },
    {
      "mesh": 0,
      "name": "Object_7",
      "skin": 0
    },
    {
      "name": "Shark_Tooth_16"
    },
    {
      "mesh": 1,
      "name": "Object_9",
      "skin": 0
    },
    {
      "children": [
        11
      ],
      "name": "Tail_1_4",
      "rotation": [
        -0.5541591644287109,
        -0.4392125606536865,
        -0.5541591048240662,
        0.4392125606536865
      ],
      "translation": [
        -0.010415167547762394,
        0.0859251543879509,
        1.154480244736078e-08
      ]
    },
    {
      "children": [
        12
      ],
      "name": "Tail_2_3",
      "rotation": [
        0.004677656572312117,
        2.9672108325939917e-08,
        1.9694510466905513e-09,
        0.9999890923500061
      ],
      "scale": [
        1.0,
        0.9999999403953552,
        0.9999999403953552
      ],
      "translation": [
        -2.4751528269566214e-16,
        0.12536559998989105,
        -7.380552169422572e-09
      ]
    },
    {
      "children": [
        13
      ],
      "name": "Tail_3_2",
      "rotation": [
        -0.034105345606803894,
        -1.3736577209044754e-08,
        1.890368084289662e-09,
        0.9994182586669922
      ],
      "scale": [
        1.0,
        1.0000001192092896,
        1.0
      ],
      "translation": [
        1.5543122344752192e-15,
        0.13745178282260895,
        -3.7252898543727042e-09
      ]
    },
    {
      "children": [
        14
      ],
      "name": "Tail_4_1",
      "rotation": [
        0.10170671343803406,
        -5.812213998979132e-08,
        -1.297746798911703e-08,
        0.9948145151138306
      ],
      "scale": [
        1.0,
        0.9999999403953552,
        1.0000001192092896
      ],
      "translation": [
        1.8318679906315083e-15,
        0.13206006586551666,
        -3.725290298461914e-09
      ]
    },
    {
      "name": "Tail_5_0",
      "rotation": [
        -0.016890468075871468,
        -3.329089892645243e-08,
        3.704383022551383e-09,
        0.9998573660850525
      ],
      "scale": [
        1.0,
        0.9999999403953552,
        1.0
      ],
      "translation": [
        1.9984014443252818e-15,
        0.10586445033550262,
        1.3183910328824555e-16
      ]
    },
    {
      "children": [
        16
      ],
      "name": "Root_13",
      "rotation": [
        -2.3378518676508975e-07,
        -0.7568958401679993,
        2.702618360217457e-07,
        0.6535355448722839
      ],
      "translation": [
        -0.0036163877230137587,
        -0.38876160979270935,
        -7.664488066438935e-08
      ]
    },
    {
      "children": [
        17,
        18,
        19,
        23
      ],
      "name": "Spine_12",
      "rotation": [
        0.572891354560852,
        0.49465814232826233,
        0.4946584403514862,
        0.42710885405540466
      ],
      "scale": [
        1.0000001192092896,
        1.0000001192092896,
        0.9999999403953552
      ],
      "translation": [
        0.0009915669215843081,
        0.47468677163124084,
        0.006726088933646679
      ]
    },
    {
      "name": "Lower_Jaw_5",
      "rotation": [
        -5.571438350671087e-07,
        1.1758870499534169e-07,
        0.7525099515914917,
        0.6585808396339417
      ],
      "scale": [
        1.0,
        1.0,
        0.9999999403953552
      ],
      "translation": [
        -7.675311053390033e-09,
        0.43230342864990234,
        -3.227003421966447e-14
      ]
    },
    {
      "name": "Upper_Jaw_6",
      "rotation": [
        5.396450575290146e-08,
        -7.754428565931448e-08,
        0.23151199519634247,
        0.9728320837020874
      ],
      "scale": [
        1.0000001192092896,
        1.0000001192092896,
        0.9999999403953552
      ],
      "translation": [
        -4.375717210791663e-08,
        0.43230339884757996,
        -2.2938164666579542e-15
      ]
    },
    {
      "children": [
        20
      ],
      "name": "Fin_1_10",
      "rotation": [
        3.2085034717965755e-07,
        7.456070427735995e-09,
        -0.8358538746833801,
        0.5489519834518433
      ],
      "scale": [
        0.9999998211860657,
        0.9999998211860657,
        0.9999999403953552
      ],
      "translation": [
        0.16758930683135986,
        0.38095375895500183,
        6.922310546997323e-08
      ]
    },
    {
      "children": [
        21
      ],
      "name": "Fin_2_9",
      "rotation": [
        2.832096779314952e-09,
        9.60287938056581e-09,
        -0.07316293567419052,
        0.9973199963569641
      ],
      "translation": [
        7.450593031421704e-09,
        0.19372199475765228,
        -1.7763568394002505e-15
      ]
    },
    {
      "children": [
        22
      ],
      "name": "Fin_3_8",
      "rotation": [
        -8.675314355777175e-10,
        -5.4812286265359944e-08,
        -0.12551596760749817,
        0.9920915961265564
      ],
      "translation": [
        -1.49011496475282e-08,
        0.21483992040157318,
        3.552713678800501e-15
      ]
    },
    {
      "name": "Fin_4_7",
      "rotation": [
        -1.678780314762207e-08,
        -2.550186550820399e-08,
        -0.19047144055366516,
        0.9816927909851074
      ],
      "translation": [
        3.756023048140378e-09,
        0.17808188498020172,
        6.927901533834236e-16
      ]
    },
    {
      "name": "Head_11",
      "rotation": [
        1.9141276652590022e-07,
        -2.220517814066625e-08,
        -0.04639694094657898,
        0.9989231824874878
      ],
      "scale": [
        0.9999999403953552,
        0.9999999403953552,
        0.9999998807907104
      ],
      "translation": [
        0.0245297122746706,
        0.5987679362297058,
        6.89445514012732e-08
      ]
    },
    {
      "name": "LightCTRL_14",
      "rotation": [
        -2.337851441325256e-07,
        -0.756895899772644,
        2.702618644434551e-07,
        0.6535354256629944
      ],
      "translation": [
        -1.25262451171875,
        -0.27802005410194397,
        -8.201916301686651e-08
      ]
    }
  ],
  "samplers": [
    {
      "magFilter": 9729,
      "minFilter": 9987,
      "wrapS": 10497,
      "wrapT": 10497
    }
  ],
  "scene": 0,
  "scenes": [
    {
      "name": "Sketchfab_Scene",
      "nodes": [
        0
      ]
    }
  ],
  "skins": [
    {
      "inverseBindMatrices": 11,
      "joints": [
        5,
        10,
        11,
        12,
        13,
        14,
        15,
        16,
        17,
        18,
        19,
        20,
        21,
        22,
        23,
        24
      ],
      "skeleton": 5
    }
  ],
  "textures": [
    {
      "sampler": 0,
      "source": 0
    },
    {
      "sampler": 0,
      "source": 1
    },
    {
      "sampler": 0,
      "source": 2
    }
  ]
}
