{
  "accessors": [
    {
      "bufferView": 3,
      "componentType": 5126,
      "count": 2430,
      "max": [
        0.21640035510063171,
        0.7572571039199829,
        0.21806859970092773
      ],
      "min": [
        -0.21539954841136932,
        0.3367651402950287,
        -0.21806852519512177
      ],
      "type": "VEC3"
    },
    {
      "bufferView": 3,
      "byteOffset": 29160,
      "componentType": 5126,
      "count": 2430,
      "max": [
        0.9995571970939636,
        0.9999595880508423,
        0.9994959831237793
      ],
      "min": [
        -0.9999909996986389,
        -0.9998629093170166,
        -0.9993956685066223
      ],
      "type": "VEC3"
    },
    {
      "bufferView": 4,
      "componentType": 5126,
      "count": 2430,
      "max": [
        0.9954744577407837,
        0.9999845027923584,
        0.9997667074203491,
        1.0
      ],
      "min": [
        -0.9984195232391357,
        -0.9995373487472534,
        -0.9996797442436218,
        -1.0
      ],
      "type": "VEC4"
    },
    {
      "bufferView": 2,
      "componentType": 5126,
      "count": 2430,
      "max": [
        0.9746013283729553,
        0.9818193316459656
      ],
      "min": [
        0.6163462996482849,
        0.4260278344154358
      ],
      "type": "VEC2"
    },
    {
      "bufferView": 1,
      "componentType": 5125,
      "count": 10128,
      "type": "SCALAR"
    },
    {
      "bufferView": 3,
      "byteOffset": 58320,
      "componentType": 5126,
      "count": 32197,
      "max": [
        0.6116517782211304,
        1.6810026168823242,
        0.6121565103530884
      ],
      "min": [
        -0.6116517782211304,
        0.7465610504150391,
        -0.6121562719345093
      ],
      "type": "VEC3"
    },
    {
      "bufferView": 3,
      "byteOffset": 444684,
      "componentType": 5126,
      "count": 32197,
      "max": [
        0.9999982714653015,
        1.0,
        0.9999998807907104
      ],
      "min": [
        -0.9999982714653015,
        -0.9999998211860657,
        -0.9999998807907104
      ],
      "type": "VEC3"
    },
    {
      "bufferView": 4,
      "byteOffset": 38880,
      "componentType": 5126,
      "count": 32197,
      "max": [
        1.0,
        0.9814134836196899,
        0.9999998211860657,
        1.0
      ],
      "min": [
        -1.0,
        -0.9814132452011108,
        -0.9999998807907104,
        1.0
      ],
      "type": "VEC4"
    },
    {
      "bufferView": 2,
      "byteOffset": 19440,
      "componentType": 5126,
      "count": 32197,
      "max": [
        0.5753121376037598,
        0.9891712069511414
      ],
      "min": [
        0.012331288307905197,
        0.17126303911209106
      ],
      "type": "VEC2"
    },
    {
      "bufferView": 1,
      "byteOffset": 40512,
      "componentType": 5125,
      "count": 150624,
      "type": "SCALAR"
    },
    {
      "bufferView": 3,
      "byteOffset": 831048,
      "componentType": 5126,
      "count": 5532,
      "max": [
        0.531096339225769,
        0.6282503604888916,
        0.7153768539428711
      ],
      "min": [
        -0.5542340278625488,
        -0.05124354362487793,
        -0.6982555389404297
      ],
      "type": "VEC3"
    },
    {
      "bufferView": 3,
      "byteOffset": 897432,
      "componentType": 5126,
      "count": 5532,
      "max": [
        0.9997072219848633,
        0.9997099041938782,
        0.999629557132721
      ],
      "min": [
        -0.9997072219848633,
        -0.9993500113487244,
        -0.999629557132721
      ],
      "type": "VEC3"
    },
    {
      "bufferView": 4,
      "byteOffset": 554032,
      "componentType": 5126,
      "count": 5532,
      "max": [
        0.9968001246452332,
        0.9989176392555237,
        0.9999488592147827,
        1.0
      ],
      "min": [
        -0.9998115301132202,
        -0.999435544013977,
        -0.9999488592147827,
        -1.0
      ],
      "type": "VEC4"
    },
    {
      "bufferView": 2,
      "byteOffset": 277016,
      "componentType": 5126,
      "count": 5532,
      "max": [
        0.9941654205322266,
        0.6270272135734558
      ],
      "min": [
        0.03162287548184395,
        0.00840747356414795
      ],
      "type": "VEC2"
    },
    {
      "bufferView": 1,
      "byteOffset": 643008,
      "componentType": 5125,
      "count": 30348,
      "type": "SCALAR"
    },
    {
      "bufferView": 5,
      "componentType": 5126,
      "count": 17,
      "max": [
        1.0,
        0.7993144392967224,
        0.6102105379104614,
        0.0,
        0.7303288578987122,
        1.0000001192092896,
        0.7868006229400635,
        0.0,
        0.6584661602973938,
        0.9215297698974609,
        1.0,
        0.0,
        0.9995476007461548,
        0.6048353314399719,
        0.6150800585746765,
        1.0
      ],
      "min": [
        -0.10199654847383499,
        -0.7902615070343018,
        -0.592193603515625,
        0.0,
        -0.7505282759666443,
        -0.9474507570266724,
        -0.9209517240524292,
        0.0,
        -0.6754379868507385,
        -0.9190294742584229,
        -0.9934989809989929,
        0.0,
        -0.5056062340736389,
        -0.9315101504325867,
        -0.5238039493560791,
        1.0
      ],
      "type": "MAT4"
    },
    {
      "bufferView": 0,
      "componentType": 5123,
      "count": 2430,
      "type": "VEC4"
    },
    {
      "bufferView": 4,
      "byteOffset": 642544,
      "componentType": 5126,
      "count": 2430,
      "max": [
        1.0,
        0.0,
        0.0,
        0.0
      ],
      "min": [
        1.0,
        0.0,
        0.0,
        0.0
      ],
      "type": "VEC4"
    },
    {
      "bufferView": 0,
      "byteOffset": 19440,
      "componentType": 5123,
      "count": 32197,
      "type": "VEC4"
    },
    {
      "bufferView": 4,
      "byteOffset": 681424,
      "componentType": 5126,
      "count": 32197,
      "max": [
        1.0,
        0.0,
        0.0,
        0.0
      ],
      "min": [
        1.0,
        0.0,
        0.0,
        0.0
      ],
      "type": "VEC4"
    },
    {
      "bufferView": 0,
      "byteOffset": 277016,
      "componentType": 5123,
      "count": 5532,
      "type": "VEC4"
    },
    {
      "bufferView": 4,
      "byteOffset": 1196576,
      "componentType": 5126,
      "count": 5532,
      "max": [
        1.0,
        0.49974462389945984,
        0.0,
        0.0
      ],
      "min": [
        0.5002554059028625,
        0.0,
        0.0,
        0.0
      ],
      "type": "VEC4"
    }
  ],
  "asset": {
    "extras": {
      "author": "lolo_ivens (https://sketchfab.com/lolo_ivens)",
      "license": "CC-BY-4.0 (http://creativecommons.org/licenses/by/4.0/)",
      "source": "https://sketchfab.com/3d-models/blok-0c54c5947e6145f1a3bfccd4ba9358a8",
      "title": "Blok"
    },
    "generator": "Sketchfab-12.67.0",
    "version": "2.0"
  },
  "bufferViews": [
    {
      "buffer": 0,
      "byteLength": 321272,
      "byteStride": 8,
      "name": "shortBufferViews",
      "target": 34962
    },
    {
      "buffer": 0,
      "byteLength": 764400,
      "byteOffset": 321272,
      "name": "floatBufferViews",
      "target": 34963
    },
    {
      "buffer": 0,
      "byteLength": 321272,
      "byteOffset": 1085672,
      "byteStride": 8,
      "name": "floatBufferViews",
      "target": 34962
    },
    {
      "buffer": 0,
      "byteLength": 963816,
      "byteOffset": 1406944,
      "byteStride": 12,
      "name": "floatBufferViews",
      "target": 34962
    },
    {
      "buffer": 0,
      "byteLength": 1285088,
      "byteOffset": 2370760,
      "byteStride": 16,
      "name": "floatBufferViews",
      "target": 34962
    },
    {
      "buffer": 0,
      "byteLength": 1088,
      "byteOffset": 3655848,
      "name": "floatBufferViews"
    }
  ],
  "buffers": [
    {
      "byteLength": 3656936,
      "uri": "scene.bin"
    }
  ],
  "images": [
    {
      "uri": "textures/Blok_Body_baseColor.png"
    },
    {
      "uri": "textures/Blok_Body_metallicRoughness.png"
    },
    {
      "uri": "textures/Blok_Body_emissive.png"
    },
    {
      "uri": "textures/Blok_Body_normal.png"
    }
  ],
  "materials": [
    {
      "alphaMode": "BLEND",
      "doubleSided": true,
      "emissiveTexture": {
        "index": 2
      },
      "name": "Blok_Body",
      "normalTexture": {
        "index": 3,
        "scale": 0.1
      },
      "pbrMetallicRoughness": {
        "baseColorTexture": {
          "index": 0
        },
        "metallicFactor": 0.0,
        "metallicRoughnessTexture": {
          "index": 1
        }
      }
    }
  ],
  "meshes": [
    {
      "name": "Object_0",
      "primitives": [
        {
          "attributes": {
            "JOINTS_0": 16,
            "NORMAL": 1,
            "POSITION": 0,
            "TANGENT": 2,
            "TEXCOORD_0": 3,
            "TEXCOORD_1": 3,
            "TEXCOORD_2": 3,
            "TEXCOORD_3": 3,
            "TEXCOORD_4": 3,
            "WEIGHTS_0": 17
          },
          "indices": 4,
          "material": 0,
          "mode": 4
        }
      ]
    },
    {
      "name": "Object_1",
      "primitives": [
        {
          "attributes": {
            "JOINTS_0": 18,
            "NORMAL": 6,
            "POSITION": 5,
            "TANGENT": 7,
            "TEXCOORD_0": 8,
            "TEXCOORD_1": 8,
            "TEXCOORD_2": 8,
            "TEXCOORD_3": 8,
            "TEXCOORD_4": 8,
            "WEIGHTS_0": 19
          },
          "indices": 9,
          "material": 0,
          "mode": 4
        }
      ]
    },
    {
      "name": "Object_2",
      "primitives": [
        {
          "attributes": {
            "JOINTS_0": 20,
            "NORMAL": 11,
            "POSITION": 10,
            "TANGENT": 12,
            "TEXCOORD_0": 13,
            "TEXCOORD_1": 13,
            "TEXCOORD_2": 13,
            "TEXCOORD_3": 13,
            "TEXCOORD_4": 13,
            "WEIGHTS_0": 21
          },
          "indices": 14,
          "material": 0,
          "mode": 4
        }
      ]
    }
  ],
  "nodes": [
    {
      "children": [
        1
      ],
      "matrix": [
        1.0,
        0.0,
        0.0,
        0.0,
        0.0,
        2.220446049250313e-16,
        -1.0,
        0.0,
        0.0,
        1.0,
        2.220446049250313e-16,
        0.0,
        0.0,
        0.0,
        0.0,
        1.0
      ],
      "name": "Sketchfab_model"
    },
    {
      "children": [
        2
      ],
      "name": "root"
    },
    {
      "children": [
        3
      ],
      "matrix": [
        1.0,
        0.0,
        0.0,
        0.0,
        0.0,
        2.220446049250313e-16,
        1.0,
        0.0,
        0.0,
        -1.0,
        2.220446049250313e-16,
        0.0,
        0.0,
        0.0,
        0.0,
        1.0
      ],
      "name": "GLTF_SceneRootNode"
    },
    {
      "children": [
        4
      ],
      "name": "Blok_Armature_19"
    },
    {
      "children": [
        5,
        7,
        9,
        11,
        6,
        8,
        10
      ],
      "name": "GLTF_created_0"
    },
    {
      "children": [
        12
      ],
      "name": "GLTF_created_0_rootJoint"
    },
    {
      "name": "Blok_Body_16"
    },
    {
      "mesh": 0,
      "name": "Object_7",
      "skin": 0
    },
    {
      "name": "Blok_Head_17"
    },
    {
      "mesh": 1,
      "name": "Object_9",
      "skin": 0
    },
    {
      "name": "Blok_Legs_18"
    },
    {
      "mesh": 2,
      "name": "Object_11",
      "skin": 0
    },
    {
      "children": [
        13
      ],
      "name": "Root_15",
      "rotation": [
        0.0,
        1.1920928955078125e-07,
        0.0,
        1.0
      ],
      "translation": [
        0.0,
        -0.032371312379837036,
        4.381492146876553e-08
      ]
    },
    {
      "children": [
        14,
        15,
        16,
        18,
        20,
        22,
        24,
        26
      ],
      "name": "Body_14",
      "scale": [
        1.0,
        0.9999999403953552,
        1.0
      ],
      "translation": [
        0.0,
        0.44943124055862427,
        0.0
      ]
    },
    {
      "name": "Head_0",
      "rotation": [
        0.0,
        0.05360502749681473,
        0.0,
        0.998562216758728
      ],
      "scale": [
        0.9999999403953552,
        1.0,
        0.9999999403953552
      ],
      "translation": [
        -6.119802456000479e-17,
        0.5144502520561218,
        3.579838638386899e-15
      ]
    },
    {
      "name": "LightCTRL_1",
      "rotation": [
        0.0,
        -1.4210854715202004e-14,
        0.0,
        1.0
      ],
      "translation": [
        -0.8546027541160583,
        -0.24813562631607056,
        0.994016170501709
      ]
    },
    {
      "children": [
        17
      ],
      "name": "Backleg_1.R_3",
      "rotation": [
        0.8012560606002808,
        0.3347333073616028,
        -0.2193598747253418,
        0.44477379322052
      ],
      "scale": [
        0.9999999403953552,
        1.0,
        0.9999999403953552
      ],
      "translation": [
        0.12736687064170837,
        0.1552954912185669,
        0.12432485818862915
      ]
    },
    {
      "name": "Backleg_2.R_2",
      "rotation": [
        0.49805015325546265,
        0.18185503780841827,
        0.47616180777549744,
        0.7015303373336792
      ],
      "scale": [
        1.0000001192092896,
        0.9999999403953552,
        1.0
      ],
      "translation": [
        -8.006789897763156e-09,
        0.4732421636581421,
        5.030788585713708e-08
      ]
    },
    {
      "children": [
        19
      ],
      "name": "Frontleg_1.R_5",
      "rotation": [
        0.7978286147117615,
        -0.3672914505004883,
        0.18577885627746582,
        0.44051429629325867
      ],
      "scale": [
        1.0,
        1.0000001192092896,
        1.0000001192092896
      ],
      "translation": [
        -0.13615122437477112,
        0.1552954763174057,
        0.12432481348514557
      ]
    },
    {
      "name": "Frontleg_2.R_4",
      "rotation": [
        0.5658672451972961,
        -0.09565835446119308,
        -0.4270612597465515,
        0.6987578272819519
      ],
      "scale": [
        1.0,
        0.9999999403953552,
        0.9999998807907104
      ],
      "translation": [
        -8.079417312956139e-08,
        0.4819670617580414,
        -7.866330520300835e-08
      ]
    },
    {
      "children": [
        21
      ],
      "name": "Middleleg_1.L_7",
      "rotation": [
        -0.79941725730896,
        -0.13813354074954987,
        0.2393137514591217,
        0.5334606170654297
      ],
      "scale": [
        1.0,
        1.000000238418579,
        1.0000001192092896
      ],
      "translation": [
        0.011428838595747948,
        0.15369194746017456,
        -0.2554345726966858
      ]
    },
    {
      "name": "Middleleg_2.L_6",
      "rotation": [
        -0.652860701084137,
        0.15991421043872833,
        0.22677765786647797,
        0.7048207521438599
      ],
      "scale": [
        0.9999999403953552,
        0.9999998807907104,
        0.9999999403953552
      ],
      "translation": [
        1.3016208555427511e-08,
        0.4313468337059021,
        -1.2065614285461379e-08
      ]
    },
    {
      "children": [
        23
      ],
      "name": "Frontleg_1.L_9",
      "rotation": [
        0.6867057681083679,
        -0.5609335899353027,
        0.46187257766723633,
        0.02150638774037361
      ],
      "scale": [
        0.9999999403953552,
        1.0,
        1.0
      ],
      "translation": [
        -0.12736688554286957,
        0.15529561042785645,
        -0.15025140345096588
      ]
    },
    {
      "name": "Frontleg_2.L_8",
      "rotation": [
        0.013221222907304764,
        -0.41181468963623047,
        -0.6956544518470764,
        0.588471531867981
      ],
      "scale": [
        1.0000001192092896,
        1.000000238418579,
        1.0
      ],
      "translation": [
        2.0489096641540527e-08,
        0.4808560907840729,
        0.0
      ]
    },
    {
      "children": [
        25
      ],
      "name": "Backleg_1.L_11",
      "rotation": [
        0.6690856218338013,
        0.5715423822402954,
        -0.47364330291748047,
        0.03641285002231598
      ],
      "scale": [
        1.0,
        0.9999998807907104,
        0.9999999403953552
      ],
      "translation": [
        0.13615114986896515,
        0.15529561042785645,
        -0.1502513438463211
      ]
    },
    {
      "name": "Backleg_2.L_10",
      "rotation": [
        0.1477200984954834,
        0.38177600502967834,
        0.6774024963378906,
        0.6111888289451599
      ],
      "scale": [
        1.0,
        1.0,
        1.0000001192092896
      ],
      "translation": [
        7.988510475342991e-08,
        0.4373146891593933,
        -1.1789904164061227e-08
      ]
    },
    {
      "children": [
        27
      ],
      "name": "Middleleg_1.R_13",
      "rotation": [
        0.8326277136802673,
        0.025588758289813995,
        0.005649202968925238,
        0.5532129406929016
      ],
      "scale": [
        1.0,
        1.0,
        1.0000001192092896
      ],
      "translation": [
        -0.011428802274167538,
        0.15369200706481934,
        0.22950799763202667
      ]
    },
    {
      "name": "Middleleg_2.R_12",
      "rotation": [
        0.6892579197883606,
        0.0514632947742939,
        0.0765676498413086,
        0.7186184525489807
      ],
      "scale": [
        1.0000001192092896,
        1.0000001192092896,
        0.9999998807907104
      ],
      "translation": [
        1.0874789957426856e-10,
        0.44842037558555603,
        5.8234149946656544e-08
      ]
    }
  ],
  "samplers": [
    {
      "magFilter": 9729,
      "minFilter": 9987,
      "wrapS": 10497,
      "wrapT": 10497
    }
  ],
  "scene": 0,
  "scenes": [
    {
      "name": "Sketchfab_Scene",
      "nodes": [
        0
      ]
    }
  ],
  "skins": [
    {
      "inverseBindMatrices": 15,
      "joints": [
        5,
        12,
        13,
        14,
        15,
        16,
        17,
        18,
        19,
        20,
        21,
        22,
        23,
        24,
        25,
        26,
        27
      ],
      "skeleton": 5
    }
  ],
  "textures": [
    {
      "sampler": 0,
      "source": 0
    },
    {
      "sampler": 0,
      "source": 1
    },
    {
      "sampler": 0,
      "source": 2
    },
    {
      "sampler": 0,
      "source": 3
    }
  ]
}
