{
  "accessors": [
    {
      "bufferView": 3,
      "componentType": 5126,
      "count": 7059,
      "max": [
        1.4826269149780273,
        1.710723876953125,
        0.9551297426223755
      ],
      "min": [
        0.23470711708068848,
        0.13700401782989502,
        -0.9551295638084412
      ],
      "type": "VEC3"
    },
    {
      "bufferView": 3,
      "byteOffset": 84708,
      "componentType": 5126,
      "count": 7059,
      "max": [
        0.9989534020423889,
        0.999294638633728,
        0.9995625019073486
      ],
      "min": [
        -0.9988105297088623,
        -0.9998136758804321,
        -0.9995625019073486
      ],
      "type": "VEC3"
    },
    {
      "bufferView": 4,
      "componentType": 5126,
      "count": 7059,
      "max": [
        0.8803289532661438,
        0.9999721050262451,
        0.9996979236602783,
        1.0
      ],
      "min": [
        -0.9992621541023254,
        -0.9989562630653381,
        -0.999697744846344,
        -1.0
      ],
      "type": "VEC4"
    },
    {
      "bufferView": 2,
      "componentType": 5126,
      "count": 7059,
      "max": [
        0.975784957408905,
        0.41042810678482056
      ],
      "min": [
        0.16221775114536285,
        0.025449544191360474
      ],
      "type": "VEC2"
    },
    {
      "bufferView": 1,
      "componentType": 5125,
      "count": 27168,
      "type": "SCALAR"
    },
    {
      "bufferView": 3,
      "byteOffset": 169416,
      "componentType": 5126,
      "count": 9688,
      "max": [
        -0.23815563321113586,
        1.971044659614563,
        0.32314521074295044
      ],
      "min": [
        -0.7159308195114136,
        1.5693877935409546,
        -0.32314515113830566
      ],
      "type": "VEC3"
    },
    {
      "bufferView": 3,
      "byteOffset": 285672,
      "componentType": 5126,
      "count": 9688,
      "max": [
        0.9934278726577759,
        0.999983012676239,
        0.9999989867210388
      ],
      "min": [
        -1.0,
        -0.9999982118606567,
        -0.9999990463256836
      ],
      "type": "VEC3"
    },
    {
      "bufferView": 4,
      "byteOffset": 112944,
      "componentType": 5126,
      "count": 9688,
      "max": [
        0.9999215602874756,
        0.9999916553497314,
        1.0,
        1.0
      ],
      "min": [
        -0.9999154806137085,
        -0.9998588562011719,
        -1.0,
        -1.0
      ],
      "type": "VEC4"
    },
    {
      "bufferView": 2,
      "byteOffset": 56472,
      "componentType": 5126,
      "count": 9688,
      "max": [
        0.7157220244407654,
        0.5560076832771301
      ],
      "min": [
        0.02503247559070587,
        0.013618127442896366
      ],
      "type": "VEC2"
    },
    {
      "bufferView": 1,
      "byteOffset": 108672,
      "componentType": 5125,
      "count": 37968,
      "type": "SCALAR"
    },
    {
      "bufferView": 3,
      "byteOffset": 401928,
      "componentType": 5126,
      "count": 4774,
      "max": [
        0.10126018524169922,
        1.7200233936309814,
        1.42421293258667
      ],
      "min": [
        -1.3412272930145264,
        0.09609085321426392,
        -1.4242130517959595
      ],
      "type": "VEC3"
    },
    {
      "bufferView": 3,
      "byteOffset": 459216,
      "componentType": 5126,
      "count": 4774,
      "max": [
        0.9980677366256714,
        0.9994469881057739,
        0.9999978542327881
      ],
      "min": [
        -0.9996604323387146,
        -0.9999465942382813,
        -0.9999978542327881
      ],
      "type": "VEC3"
    },
    {
      "bufferView": 4,
      "byteOffset": 267952,
      "componentType": 5126,
      "count": 4774,
      "max": [
        0.9968835115432739,
        0.9997661709785461,
        0.999075174331665,
        1.0
      ],
      "min": [
        -0.9991858601570129,
        -0.9994498491287231,
        -0.9990739226341248,
        -1.0
      ],
      "type": "VEC4"
    },
    {
      "bufferView": 2,
      "byteOffset": 133976,
      "componentType": 5126,
      "count": 4774,
      "max": [
        0.9779519438743591,
        0.8399237394332886
      ],
      "min": [
        0.017655376344919205,
        0.02216048538684845
      ],
      "type": "VEC2"
    },
    {
      "bufferView": 1,
      "byteOffset": 260544,
      "componentType": 5125,
      "count": 19680,
      "type": "SCALAR"
    },
    {
      "bufferView": 3,
      "byteOffset": 516504,
      "componentType": 5126,
      "count": 2557,
      "max": [
        0.9737711548805237,
        1.966537594795227,
        0.7060366272926331
      ],
      "min": [
        -0.7404404878616333,
        1.54434072971344,
        -0.7060364484786987
      ],
      "type": "VEC3"
    },
    {
      "bufferView": 3,
      "byteOffset": 547188,
      "componentType": 5126,
      "count": 2557,
      "max": [
        0.9963046312332153,
        0.9998098611831665,
        0.9908762574195862
      ],
      "min": [
        -0.9991496801376343,
        -0.9999758005142212,
        -0.9908762574195862
      ],
      "type": "VEC3"
    },
    {
      "bufferView": 4,
      "byteOffset": 344336,
      "componentType": 5126,
      "count": 2557,
      "max": [
        0.9999305605888367,
        0.9644243121147156,
        0.9999688267707825,
        1.0
      ],
      "min": [
        -0.9898136258125305,
        -0.9986429214477539,
        -0.9999688267707825,
        -1.0
      ],
      "type": "VEC4"
    },
    {
      "bufferView": 2,
      "byteOffset": 172168,
      "componentType": 5126,
      "count": 2557,
      "max": [
        0.989209771156311,
        0.9772852659225464
      ],
      "min": [
        0.6324297189712524,
        0.1773449033498764
      ],
      "type": "VEC2"
    },
    {
      "bufferView": 1,
      "byteOffset": 339264,
      "componentType": 5125,
      "count": 9600,
      "type": "SCALAR"
    },
    {
      "bufferView": 3,
      "byteOffset": 577872,
      "componentType": 5126,
      "count": 1532,
      "max": [
        1.062098741531372,
        2.1840291023254395,
        0.8318763971328735
      ],
      "min": [
        -0.7609230875968933,
        1.7858890295028687,
        -0.831876277923584
      ],
      "type": "VEC3"
    },
    {
      "bufferView": 3,
      "byteOffset": 596256,
      "componentType": 5126,
      "count": 1532,
      "max": [
        0.9945175647735596,
        0.9999911189079285,
        0.9982290863990784
      ],
      "min": [
        -0.9912465810775757,
        -0.9999860525131226,
        -0.9982290863990784
      ],
      "type": "VEC3"
    },
    {
      "bufferView": 4,
      "byteOffset": 385248,
      "componentType": 5126,
      "count": 1532,
      "max": [
        0.9985054731369019,
        0.9955875873565674,
        0.9997971653938293,
        1.0
      ],
      "min": [
        -0.9999009370803833,
        -0.9967237114906311,
        -0.9988728761672974,
        1.0
      ],
      "type": "VEC4"
    },
    {
      "bufferView": 2,
      "byteOffset": 192624,
      "componentType": 5126,
      "count": 1532,
      "max": [
        0.4752671420574188,
        0.9674234390258789
      ],
      "min": [
        0.015616202726960182,
        0.5167462229728699
      ],
      "type": "VEC2"
    },
    {
      "bufferView": 1,
      "byteOffset": 377664,
      "componentType": 5125,
      "count": 4800,
      "type": "SCALAR"
    },
    {
      "bufferView": 5,
      "componentType": 5126,
      "count": 16,
      "max": [
        1.0,
        0.7936798930168152,
        0.5052279233932495,
        0.0,
        0.9997748732566833,
        1.0000001192092896,
        0.7163746953010559,
        0.0,
        0.5249767899513245,
        0.6371264457702637,
        1.0000001192092896,
        0.0,
        1.6866514682769775,
        1.4724469184875488,
        0.996772825717926,
        1.0
      ],
      "min": [
        -0.9657583236694336,
        -0.9997748136520386,
        -0.7759407758712769,
        0.0,
        -0.9958884119987488,
        -0.9657341837882996,
        -0.07455426454544067,
        0.0,
        -0.7988552451133728,
        -0.6371257305145264,
        -0.8930162787437439,
        0.0,
        -1.8722156286239624,
        -0.8397483825683594,
        -0.9305090308189392,
        1.0
      ],
      "type": "MAT4"
    },
    {
      "bufferView": 0,
      "componentType": 5123,
      "count": 7059,
      "type": "VEC4"
    },
    {
      "bufferView": 4,
      "byteOffset": 409760,
      "componentType": 5126,
      "count": 7059,
      "max": [
        1.0,
        0.4386855363845825,
        0.3132210671901703,
        0.1981278359889984
      ],
      "min": [
        0.3060779571533203,
        0.0,
        0.0,
        0.0
      ],
      "type": "VEC4"
    },
    {
      "bufferView": 0,
      "byteOffset": 56472,
      "componentType": 5123,
      "count": 9688,
      "type": "VEC4"
    },
    {
      "bufferView": 4,
      "byteOffset": 522704,
      "componentType": 5126,
      "count": 9688,
      "max": [
        1.0,
        0.22375471889972687,
        0.0,
        0.0
      ],
      "min": [
        0.7762452960014343,
        0.0,
        0.0,
        0.0
      ],
      "type": "VEC4"
    },
    {
      "bufferView": 0,
      "byteOffset": 133976,
      "componentType": 5123,
      "count": 4774,
      "type": "VEC4"
    },
    {
      "bufferView": 4,
      "byteOffset": 677712,
      "componentType": 5126,
      "count": 4774,
      "max": [
        1.0,
        0.4993535578250885,
        0.064052514731884,
        0.0
      ],
      "min": [
        0.5006464719772339,
        0.0,
        0.0,
        0.0
      ],
      "type": "VEC4"
    },
    {
      "bufferView": 0,
      "byteOffset": 172168,
      "componentType": 5123,
      "count": 2557,
      "type": "VEC4"
    },
    {
      "bufferView": 4,
      "byteOffset": 754096,
      "componentType": 5126,
      "count": 2557,
      "max": [
        1.0,
        0.499118834733963,
        0.24285970628261566,
        0.0687771663069725
      ],
      "min": [
        0.4137233793735504,
        0.0,
        0.0,
        0.0
      ],
      "type": "VEC4"
    },
    {
      "bufferView": 0,
      "byteOffset": 192624,
      "componentType": 5123,
      "count": 1532,
      "type": "VEC4"
    },
    {
      "bufferView": 4,
      "byteOffset": 795008,
      "componentType": 5126,
      "count": 1532,
      "max": [
        1.0,
        0.4998929798603058,
        0.3149694800376892,
        0.03856753185391426
      ],
      "min": [
        0.369166761636734,
        0.0,
        0.0,
        0.0
      ],
      "type": "VEC4"
    }
  ],
  "asset": {
    "extras": {
      "author": "lolo_ivens (https://sketchfab.com/lolo_ivens)",
      "license": "CC-BY-4.0 (http://creativecommons.org/licenses/by/4.0/)",
      "source": "https://sketchfab.com/3d-models/krab-99f7b9e64b2540988f3790eec59b1e86",
      "title": "Krab"
    },
    "generator": "Sketchfab-12.68.0",
    "version": "2.0"
  },
  "bufferViews": [
    {
      "buffer": 0,
      "byteLength": 204880,
      "byteStride": 8,
      "name": "shortBufferViews",
      "target": 34962
    },
    {
      "buffer": 0,
      "byteLength": 396864,
      "byteOffset": 204880,
      "name": "floatBufferViews",
      "target": 34963
    },
    {
      "buffer": 0,
      "byteLength": 204880,
      "byteOffset": 601744,
      "byteStride": 8,
      "name": "floatBufferViews",
      "target": 34962
    },
    {
      "buffer": 0,
      "byteLength": 614640,
      "byteOffset": 806624,
      "byteStride": 12,
      "name": "floatBufferViews",
      "target": 34962
    },
    {
      "buffer": 0,
      "byteLength": 819520,
      "byteOffset": 1421264,
      "byteStride": 16,
      "name": "floatBufferViews",
      "target": 34962
    },
    {
      "buffer": 0,
      "byteLength": 1024,
      "byteOffset": 2240784,
      "name": "floatBufferViews"
    }
  ],
  "buffers": [
    {
      "byteLength": 2241808,
      "uri": "scene.bin"
    }
  ],
  "images": [
    {
      "uri": "textures/Crab_baseColor.png"
    },
    {
      "uri": "textures/Crab_metallicRoughness.png"
    },
    {
      "uri": "textures/Crab_emissive.png"
    },
    {
      "uri": "textures/Crab_normal.png"
    }
  ],
  "materials": [
    {
      "doubleSided": true,
      "emissiveFactor": [
        1.0,
        1.0,
        1.0
      ],
      "emissiveTexture": {
        "index": 2
      },
      "name": "Crab",
      "normalTexture": {
        "index": 3,
        "scale": 0.05
      },
      "pbrMetallicRoughness": {
        "baseColorTexture": {
          "index": 0
        },
        "metallicFactor": 0.0,
        "metallicRoughnessTexture": {
          "index": 1
        }
      }
    }
  ],
  "meshes": [
    {
      "name": "Object_0",
      "primitives": [
        {
          "attributes": {
            "JOINTS_0": 26,
            "NORMAL": 1,
            "POSITION": 0,
            "TANGENT": 2,
            "TEXCOORD_0": 3,
            "TEXCOORD_1": 3,
            "TEXCOORD_2": 3,
            "TEXCOORD_3": 3,
            "TEXCOORD_4": 3,
            "WEIGHTS_0": 27
          },
          "indices": 4,
          "material": 0,
          "mode": 4
        }
      ]
    },
    {
      "name": "Object_1",
      "primitives": [
        {
          "attributes": {
            "JOINTS_0": 28,
            "NORMAL": 6,
            "POSITION": 5,
            "TANGENT": 7,
            "TEXCOORD_0": 8,
            "TEXCOORD_1": 8,
            "TEXCOORD_2": 8,
            "TEXCOORD_3": 8,
            "TEXCOORD_4": 8,
            "WEIGHTS_0": 29
          },
          "indices": 9,
          "material": 0,
          "mode": 4
        }
      ]
    },
    {
      "name": "Object_2",
      "primitives": [
        {
          "attributes": {
            "JOINTS_0": 30,
            "NORMAL": 11,
            "POSITION": 10,
            "TANGENT": 12,
            "TEXCOORD_0": 13,
            "TEXCOORD_1": 13,
            "TEXCOORD_2": 13,
            "TEXCOORD_3": 13,
            "TEXCOORD_4": 13,
            "WEIGHTS_0": 31
          },
          "indices": 14,
          "material": 0,
          "mode": 4
        }
      ]
    },
    {
      "name": "Object_3",
      "primitives": [
        {
          "attributes": {
            "JOINTS_0": 32,
            "NORMAL": 16,
            "POSITION": 15,
            "TANGENT": 17,
            "TEXCOORD_0": 18,
            "TEXCOORD_1": 18,
            "TEXCOORD_2": 18,
            "TEXCOORD_3": 18,
            "TEXCOORD_4": 18,
            "WEIGHTS_0": 33
          },
          "indices": 19,
          "material": 0,
          "mode": 4
        }
      ]
    },
    {
      "name": "Object_4",
      "primitives": [
        {
          "attributes": {
            "JOINTS_0": 34,
            "NORMAL": 21,
            "POSITION": 20,
            "TANGENT": 22,
            "TEXCOORD_0": 23,
            "TEXCOORD_1": 23,
            "TEXCOORD_2": 23,
            "TEXCOORD_3": 23,
            "TEXCOORD_4": 23,
            "WEIGHTS_0": 35
          },
          "indices": 24,
          "material": 0,
          "mode": 4
        }
      ]
    }
  ],
  "nodes": [
    {
      "children": [
        1
      ],
      "matrix": [
        1.0,
        0.0,
        0.0,
        0.0,
        0.0,
        2.220446049250313e-16,
        -1.0,
        0.0,
        0.0,
        1.0,
        2.220446049250313e-16,
        0.0,
        0.0,
        0.0,
        0.0,
        1.0
      ],
      "name": "Sketchfab_model"
    },
    {
      "children": [
        2
      ],
      "name": "root"
    },
    {
      "children": [
        3
      ],
      "matrix": [
        1.0,
        0.0,
        0.0,
        0.0,
        0.0,
        2.220446049250313e-16,
        1.0,
        0.0,
        0.0,
        -1.0,
        2.220446049250313e-16,
        0.0,
        0.0,
        0.0,
        0.0,
        1.0
      ],
      "name": "GLTF_SceneRootNode"
    },
    {
      "children": [
        4
      ],
      "name": "Crab_Armature_20"
    },
    {
      "children": [
        5,
        7,
        9,
        11,
        13,
        15,
        6,
        8,
        10,
        12,
        14
      ],
      "name": "GLTF_created_0"
    },
    {
      "children": [
        16
      ],
      "name": "GLTF_created_0_rootJoint"
    },
    {
      "name": "Crab_Back_Legs_15"
    },
    {
      "mesh": 0,
      "name": "Object_7",
      "skin": 0
    },
    {
      "name": "Crab_Eyes_16"
    },
    {
      "mesh": 1,
      "name": "Object_9",
      "skin": 0
    },
    {
      "name": "Crab_Front_Legs_17"
    },
    {
      "mesh": 2,
      "name": "Object_11",
      "skin": 0
    },
    {
      "name": "Crab_Head_Bottom_18"
    },
    {
      "mesh": 3,
      "name": "Object_13",
      "skin": 0
    },
    {
      "name": "Crab_Head_Top_19"
    },
    {
      "mesh": 4,
      "name": "Object_15",
      "skin": 0
    },
    {
      "children": [
        17,
        30
      ],
      "name": "Root_14",
      "rotation": [
        -2.9802322387695313e-08,
        0.0,
        0.0,
        1.0
      ],
      "scale": [
        1.0,
        0.9999998807907104,
        0.9999998807907104
      ],
      "translation": [
        0.0,
        0.0,
        4.381492146876553e-08
      ]
    },
    {
      "children": [
        18,
        21,
        24,
        27
      ],
      "name": "Head_12",
      "rotation": [
        2.4191399106143763e-08,
        -6.228753335335568e-08,
        0.714569628238678,
        0.6995643973350525
      ],
      "scale": [
        1.000000238418579,
        1.0000001192092896,
        1.0
      ],
      "translation": [
        0.6743901968002319,
        1.8869508504867554,
        4.438700429432174e-08
      ]
    },
    {
      "children": [
        19
      ],
      "name": "Frontleg_1.R_2",
      "rotation": [
        0.3082750141620636,
        -0.006547495257109404,
        0.4834776520729065,
        0.819251537322998
      ],
      "translation": [
        -0.23314274847507477,
        0.6778498888015747,
        0.43828290700912476
      ]
    },
    {
      "children": [
        20
      ],
      "name": "Frontleg_2.R_1",
      "rotation": [
        -0.10065554827451706,
        0.04478330537676811,
        -0.2446117401123047,
        0.9633421301841736
      ],
      "scale": [
        0.9999999403953552,
        0.9999999403953552,
        1.0
      ],
      "translation": [
        -2.8612747726697307e-08,
        0.9461078643798828,
        7.627522791153751e-08
      ]
    },
    {
      "name": "Frontleg_3.R_0",
      "rotation": [
        0.06072545051574707,
        -0.001584164914675057,
        -0.27805423736572266,
        0.9586426615715027
      ],
      "scale": [
        0.9999999403953552,
        0.9999999403953552,
        1.0
      ],
      "translation": [
        -5.539568448398313e-08,
        0.16031594574451447,
        1.0386823134922452e-07
      ]
    },
    {
      "children": [
        22
      ],
      "name": "Frontleg_1.L_5",
      "rotation": [
        -0.3979327380657196,
        0.16869285702705383,
        0.4128361642360687,
        0.8017222285270691
      ],
      "scale": [
        0.9999999403953552,
        0.9999998807907104,
        1.0000001192092896
      ],
      "translation": [
        -0.2337966412305832,
        0.6470397710800171,
        -0.42011621594429016
      ]
    },
    {
      "children": [
        23
      ],
      "name": "Frontleg_2.L_4",
      "rotation": [
        0.23775868117809296,
        0.2679407596588135,
        -0.11591940373182297,
        0.9264131188392639
      ],
      "translation": [
        -3.315271612791548e-08,
        0.9461074471473694,
        9.460437766506402e-09
      ]
    },
    {
      "name": "Frontleg_3.L_3",
      "rotation": [
        0.26249969005584717,
        0.8667786121368408,
        0.10997943580150604,
        0.4095039665699005
      ],
      "scale": [
        1.0000001192092896,
        0.9999997019767761,
        1.0000001192092896
      ],
      "translation": [
        1.7815093400486148e-08,
        0.16031605005264282,
        -3.8172128569158303e-08
      ]
    },
    {
      "children": [
        25
      ],
      "name": "Backleg_1.R_8",
      "rotation": [
        0.0019101806683465838,
        0.003209149930626154,
        0.7870418429374695,
        0.6168882846832275
      ],
      "scale": [
        1.0,
        0.9999999403953552,
        1.0
      ],
      "translation": [
        -0.2578674554824829,
        0.32314425706863403,
        0.22778145968914032
      ]
    },
    {
      "children": [
        26
      ],
      "name": "Backleg_2.R_7",
      "rotation": [
        0.39856278896331787,
        0.0009243949316442013,
        0.4574357569217682,
        0.7949210405349731
      ],
      "scale": [
        1.0,
        0.9999998807907104,
        1.0000001192092896
      ],
      "translation": [
        5.3274561651051044e-08,
        0.7732137441635132,
        1.3737007975578308e-08
      ]
    },
    {
      "name": "Backleg_3.R_6",
      "rotation": [
        -0.013799265958368778,
        -0.0004941078368574381,
        0.01570727676153183,
        0.9997813105583191
      ],
      "scale": [
        0.9999999403953552,
        0.9999998807907104,
        0.9999999403953552
      ],
      "translation": [
        -1.694332354418293e-07,
        0.1358298510313034,
        -2.8222858716731025e-08
      ]
    },
    {
      "children": [
        28
      ],
      "name": "Backleg_1.L_11",
      "rotation": [
        -0.00034367767511866987,
        -0.004436830524355173,
        0.787044107913971,
        0.6168808341026306
      ],
      "scale": [
        0.9999999403953552,
        1.0,
        1.0
      ],
      "translation": [
        -0.258521169424057,
        0.2923339307308197,
        -0.20961470901966095
      ]
    },
    {
      "children": [
        29
      ],
      "name": "Backleg_2.L_10",
      "rotation": [
        0.4047272205352783,
        -0.7885596752166748,
        0.45199087262153625,
        0.10036777704954147
      ],
      "scale": [
        1.0000001192092896,
        1.0000001192092896,
        0.9999999403953552
      ],
      "translation": [
        7.422569581194693e-08,
        0.7732133865356445,
        3.7632773342011205e-08
      ]
    },
    {
      "name": "Backleg_3.L_9",
      "rotation": [
        -0.00988695863634348,
        -0.022795073688030243,
        -0.018421968445181847,
        0.9995215535163879
      ],
      "scale": [
        0.9999999403953552,
        1.0,
        1.0
      ],
      "translation": [
        8.930456374400819e-08,
        0.135829895734787,
        1.7638956961718577e-08
      ]
    },
    {
      "name": "LightCTRL_13",
      "rotation": [
        -1.6990030360375385e-07,
        -3.2620349088574585e-07,
        0.010610426776111126,
        0.999943733215332
      ],
      "scale": [
        1.0000001192092896,
        1.0000001192092896,
        1.0
      ],
      "translation": [
        -1.6996878385543823,
        0.5963403582572937,
        -0.9967741966247559
      ]
    }
  ],
  "samplers": [
    {
      "magFilter": 9729,
      "minFilter": 9987,
      "wrapS": 10497,
      "wrapT": 10497
    }
  ],
  "scene": 0,
  "scenes": [
    {
      "name": "Sketchfab_Scene",
      "nodes": [
        0
      ]
    }
  ],
  "skins": [
    {
      "inverseBindMatrices": 25,
      "joints": [
        5,
        16,
        17,
        18,
        19,
        20,
        21,
        22,
        23,
        24,
        25,
        26,
        27,
        28,
        29,
        30
      ],
      "skeleton": 5
    }
  ],
  "textures": [
    {
      "sampler": 0,
      "source": 0
    },
    {
      "sampler": 0,
      "source": 1
    },
    {
      "sampler": 0,
      "source": 2
    },
    {
      "sampler": 0,
      "source": 3
    }
  ]
}
